<svg id="flat" height="512" viewBox="0 0 512 512" width="512" xmlns="http://www.w3.org/2000/svg"><path d="m350.692 208v40h-262.706l16-40z" fill="#8c410b"/><path d="m166.692 208v20.68629a8 8 0 0 0 2.34315 5.65686l13.65685 13.65685h128v-40z" fill="#b6f7f5"/><path d="m71.986 280-8 32h246.706v-32z" fill="#8c410b"/><path d="m134.692 280h96v32h-96z" fill="#b6f7f5"/><path d="m127.98557 136-13.65685-13.65685a8 8 0 0 1 -2.34315-5.65686v-4.68629a8 8 0 0 1 8-8h198.70643a8 8 0 0 1 8 8v4.68629a8 8 0 0 1 -2.34314 5.65686l-11.31371 11.3137a8 8 0 0 1 -5.65685 2.34315z" fill="#eeac13"/><path d="m111.986 176 16-40h166.706v40z" fill="#c47010"/><path d="m174.706 280h16v32h-16z" fill="#4fbfcb"/><path d="m254.706 208h16v32h-16z" fill="#4fbfcb"/><path d="m206.692 136v20.68629a8 8 0 0 0 2.34315 5.65686l13.65685 13.65685h72v-40z" fill="#b6f7f5"/><path d="m238.706 136h16v40h-16z" fill="#4fbfcb"/><path d="m206.706 208h16v40h-16z" fill="#4fbfcb"/><path d="m430.692 280v-19.71853a8 8 0 0 0 -3.56239-6.6564l-18.42221-12.28147a7.99994 7.99994 0 0 0 -4.4376-1.3436h-181.5778l-16 8h-158.70643a8 8 0 0 0 -8 8v4.68629a8 8 0 0 0 2.34315 5.65686l13.65685 13.65685z" fill="#c47010"/><path d="m31.98557 312a8 8 0 0 0 -8 8v53.33333a8 8 0 0 0 1.6 4.8l20 26.66667a8 8 0 0 0 6.4 3.2h350.35422a8 8 0 0 0 6.71656-3.654l77.64706-120a8 8 0 0 0 -6.71656-12.346h-165.44985a8 8 0 0 0 -6.24695 3.00244l-27.19605 33.99512a8 8 0 0 1 -6.247 3.00244z" fill="#eeac13"/><g fill="#c47010"><path d="m326.706 296h16v16h-16z"/><path d="m358.706 296h16v16h-16z"/><path d="m390.706 296h16v16h-16z"/></g><path d="m355.12961 181.62507-18.42221-12.28147a7.99994 7.99994 0 0 0 -4.4376-1.3436h-77.5778l-16 8h-142.70643a8 8 0 0 0 -8 8v4.68629a8 8 0 0 0 2.34315 5.65686l13.65685 13.65685h246.70643a8 8 0 0 0 8-8v-11.71853a8 8 0 0 0 -3.56239-6.6564z" fill="#eeac13"/></svg>